<svg width="486" height="486" viewBox="0 0 486 486" fill="none" xmlns="http://www.w3.org/2000/svg">
<g clip-path="url(#clip0)">
<path d="M173.897 197.438C173.897 205.032 167.822 211.866 159.469 211.866H95.6812C88.0874 211.866 81.253 205.791 81.253 197.438V179.213C81.253 171.619 88.0874 164.785 95.6812 164.785H159.469C167.062 164.785 173.897 170.86 173.897 179.213V197.438Z" fill="#212528"/>
<path d="M432.844 196.677C432.844 201.234 429.047 204.271 425.25 204.271H391.078C386.522 204.271 383.484 200.474 383.484 196.677V186.805C383.484 182.249 387.281 179.212 391.078 179.212H425.25C429.806 179.212 432.844 183.009 432.844 186.805V196.677Z" fill="#212528"/>
<path d="M454.866 424.491C454.866 444.234 438.919 460.181 419.175 460.181H67.5843C47.8405 460.181 31.8936 444.234 31.8936 424.491V413.859H454.866V424.491" fill="#212528"/>
<path d="M31.1341 224.774C31.1341 205.03 47.0809 189.083 66.8247 189.083H418.415C438.159 189.083 454.106 205.03 454.106 224.774V235.405H31.1341V224.774Z" fill="#51575B"/>
<path d="M31.1341 233.887H454.106V420.693H31.1341V233.887Z" fill="#3E4347"/>
<path d="M392.597 218.7H180.731L201.994 102.516C203.513 95.6817 212.625 85.8098 217.941 83.5317C250.594 69.1035 323.494 69.1035 355.388 83.5317C360.703 85.8098 369.816 96.441 371.334 102.516L392.597 218.7Z" fill="#51575B"/>
<path d="M382.725 287.043H191.362L210.347 190.603C211.866 185.287 220.219 176.175 224.775 174.656C253.631 162.506 319.697 162.506 349.312 174.656C353.869 176.934 362.222 185.287 363.741 190.603L382.725 287.043Z" fill="#3E4347"/>
<path d="M432.084 340.201C432.084 420.695 366.778 486.001 286.284 486.001C205.791 486.001 140.484 420.695 140.484 340.201C140.484 259.707 205.791 194.401 286.284 194.401C366.778 195.161 432.084 260.467 432.084 340.201" fill="#788287"/>
<path d="M416.138 340.2C416.138 411.581 358.425 469.293 287.044 469.293C215.663 469.293 157.95 411.581 157.95 340.2C157.95 268.818 215.663 211.106 287.044 211.106C358.425 211.106 416.138 268.818 416.138 340.2Z" fill="#212528"/>
<path d="M287.044 444.994C344.92 444.994 391.837 398.076 391.837 340.2C391.837 282.324 344.92 235.406 287.044 235.406C229.168 235.406 182.25 282.324 182.25 340.2C182.25 398.076 229.168 444.994 287.044 444.994Z" fill="#3E4347"/>
<path d="M287.044 397.153C318.498 397.153 343.997 371.654 343.997 340.2C343.997 308.745 318.498 283.246 287.044 283.246C255.59 283.246 230.091 308.745 230.091 340.2C230.091 371.654 255.59 397.153 287.044 397.153Z" fill="#212528"/>
<path opacity="0.5" d="M363.74 295.398C363.74 313.623 349.312 328.051 331.087 328.051C312.862 328.051 298.434 313.623 298.434 295.398C298.434 277.173 312.862 262.745 331.087 262.745C349.312 262.745 363.74 277.933 363.74 295.398Z" fill="#F5F5F5"/>
<path opacity="0.5" d="M266.54 381.208C277.864 381.208 287.044 372.028 287.044 360.705C287.044 349.381 277.864 340.202 266.54 340.202C255.217 340.202 246.037 349.381 246.037 360.705C246.037 372.028 255.217 381.208 266.54 381.208Z" fill="#F5F5F5"/>
<path opacity="0.5" d="M230.091 409.306C236.801 409.306 242.241 403.866 242.241 397.156C242.241 390.445 236.801 385.006 230.091 385.006C223.38 385.006 217.941 390.445 217.941 397.156C217.941 403.866 223.38 409.306 230.091 409.306Z" fill="#F5F5F5"/>
<path d="M130.613 391.079C130.613 398.672 124.538 405.507 116.184 405.507H54.6751C47.0814 405.507 40.247 399.432 40.247 391.079V262.744C40.247 255.15 46.322 248.316 54.6751 248.316H116.184C123.778 248.316 130.613 254.391 130.613 262.744V391.079Z" fill="#636C72"/>
<path d="M97.9591 235.405C109.702 235.405 119.222 225.885 119.222 214.143C119.222 202.4 109.702 192.88 97.9591 192.88C86.2161 192.88 76.6966 202.4 76.6966 214.143C76.6966 225.885 86.2161 235.405 97.9591 235.405Z" fill="#212528"/>
<path d="M349.312 132.13C349.312 139.724 343.237 145.039 336.403 145.039H236.925C229.331 145.039 224.016 138.964 224.016 132.13V118.461C224.016 110.868 230.091 105.552 236.925 105.552H336.403C343.997 105.552 349.312 111.627 349.312 118.461V132.13Z" fill="white"/>
<path d="M322.734 115.424L413.859 55.4331L397.153 33.4113L322.734 115.424Z" fill="#FFCE31"/>
<path d="M429.047 143.522V117.703L335.644 135.169L429.047 143.522Z" fill="#FFCE31"/>
<path d="M342.478 0H311.343L294.637 110.109L342.478 0Z" fill="#FFCE31"/>
<path d="M255.15 115.424L177.694 33.4113L160.228 55.4331L255.15 115.424Z" fill="#FFCE31"/>
<path d="M257.428 0H225.534L277.931 110.109L257.428 0Z" fill="#FFCE31"/>
<path d="M142.003 117.703V143.522L239.962 135.169L142.003 117.703Z" fill="#FFCE31"/>
</g>
<defs>
<clipPath id="clip0">
<rect width="486" height="486" fill="white"/>
</clipPath>
</defs>
</svg>
