<svg width="202" height="348" viewBox="0 0 202 348" fill="none" xmlns="http://www.w3.org/2000/svg">
<path d="M27.2251 155.802C22.5302 155.802 18.7243 158.047 18.7243 160.815C18.7243 163.584 22.5302 165.829 27.2251 165.829C31.9199 165.829 35.7258 163.584 35.7258 160.815C35.7258 158.047 31.9199 155.802 27.2251 155.802Z" fill="#424242"/>
<path d="M27.2251 240.177C42.0469 240.177 54.0704 229.159 54.0704 215.575C54.0704 212.031 53.0016 208.241 51.4337 204.901C49.2329 200.204 46.8352 196.731 46.1321 195.451C44.1774 191.893 44.4587 188.146 43.9172 185.797C42.8977 181.41 39.8462 179.821 27.2321 179.821C14.618 179.821 11.904 181.332 10.7719 185.375C9.9985 188.125 10.7508 191.127 8.80319 194.678C8.10006 195.957 5.23834 200.197 3.03053 204.901C1.46256 208.241 0.393806 212.031 0.393806 215.575C0.379745 229.159 12.4032 240.177 27.2251 240.177Z" fill="#FFD600"/>
<path d="M27.2251 179.293C18.7052 179.293 11.7985 180.697 11.7985 182.429C11.7985 184.161 18.7052 185.565 27.2251 185.565C35.7449 185.565 42.6516 184.161 42.6516 182.429C42.6516 180.697 35.7449 179.293 27.2251 179.293Z" fill="#B26500"/>
<path d="M27.2251 179.293C18.7052 179.293 11.7985 180.697 11.7985 182.429C11.7985 184.161 18.7052 185.565 27.2251 185.565C35.7449 185.565 42.6516 184.161 42.6516 182.429C42.6516 180.697 35.7449 179.293 27.2251 179.293Z" fill="#B26500"/>
<path d="M27.2251 180.981C21.0157 180.981 15.9821 181.629 15.9821 182.429C15.9821 183.229 21.0157 183.878 27.2251 183.878C33.4344 183.878 38.468 183.229 38.468 182.429C38.468 181.629 33.4344 180.981 27.2251 180.981Z" fill="#FFA000"/>
<path d="M34.7485 203.073C35.1844 201.976 36.3165 199.719 35.7258 198.707C34.3547 196.351 31.0852 195.507 31.0852 193.342C31.0852 190.037 33.4899 179.328 33.4899 179.328" stroke="#B26500" stroke-width="1.40625" stroke-miterlimit="10"/>
<path d="M20.1727 203.467C20.1727 203.467 18.5977 200.092 19.2657 198.58C19.7649 197.455 22.7672 195.641 23.154 195.339C24.9469 193.932 22.5633 179.321 22.5633 179.321" stroke="#B26500" stroke-width="1.40625" stroke-miterlimit="10"/>
<path d="M34.7485 203.073C32.3298 207.854 31.0852 218.767 34.1579 218.211C39.3399 217.276 32.9555 199.346 29.8126 201.407C26.6696 203.467 22.7743 218.176 27.5555 218.232C32.3368 218.289 27.2321 199.487 23.9837 201.575C21.4172 203.228 15.1524 218.211 20.2993 218.211C24.6798 218.211 20.1657 203.467 20.1657 203.467" stroke="#FCFBFB" stroke-width="1.40625" stroke-miterlimit="10"/>
<path d="M11.8337 181.775C11.8337 181.775 15.8837 179.821 27.2251 179.821C38.5665 179.821 42.6165 181.775 42.6165 181.775C42.6165 181.775 42.8696 178.161 42.0329 176.523C41.0274 174.554 40.254 173.872 40.254 173.872L39.8321 171.868L40.0008 171.341C40.2188 170.652 40.0641 169.893 39.579 169.351L39.2133 168.943L38.8055 167.017L38.9462 166.63C39.2133 165.892 39.0305 165.069 38.4821 164.507L38.2149 164.232L37.8844 162.657C37.8844 162.657 36.211 159.086 27.2251 159.086C18.2391 159.086 16.5657 162.657 16.5657 162.657L16.5376 162.791L16.3547 162.974C15.9891 163.332 15.8696 163.867 16.0454 164.345L16.1508 164.619L15.7149 166.7L14.9485 167.509C14.5688 167.91 14.4844 168.5 14.7305 168.993L15.0821 169.689L14.6391 171.777L14.3579 171.995C13.943 172.452 13.936 173.141 14.1188 173.612C14.2594 173.985 14.1469 174.407 13.8587 174.681C13.4157 175.103 12.8461 175.743 12.4243 176.537C11.5594 178.147 11.8337 181.775 11.8337 181.775Z" fill="#82AEC0"/>
<path d="M40.254 173.872L39.8743 171.854C35.7821 171.875 30.3188 171.672 19.8352 173.338C17.9438 173.767 15.6727 174.618 18.1829 174.266C18.1829 174.273 27.8087 173.352 40.254 173.872Z" fill="#2F7889"/>
<path d="M38.8477 167.003C34.3196 167.08 25.0665 167.53 15.1243 169.689L14.6813 171.777C25.0805 169.414 34.861 168.993 39.2555 168.936L38.8477 167.003Z" fill="#2F7889"/>
<path d="M15.7571 166.708C24.961 164.711 33.5743 164.197 38.236 164.085L37.9337 162.65C37.9337 162.65 37.786 158.2 27.2743 158.2C16.7626 158.2 16.6149 162.65 16.6149 162.65C16.6149 162.65 21.1008 161.371 26.6204 161.997C26.6785 161.996 26.7362 162.007 26.7902 162.029C26.8441 162.051 26.8932 162.083 26.9346 162.124C27.0184 162.206 27.0659 162.319 27.0669 162.436C27.0678 162.554 27.022 162.667 26.9396 162.75C26.8572 162.834 26.7449 162.882 26.6274 162.883C23.3297 163.318 19.3922 163.965 16.193 164.626L15.7571 166.708Z" fill="#2F7889"/>
<path d="M42.5672 181.775C42.5672 181.775 38.0251 179.821 27.2673 179.821C16.5094 179.821 11.8829 181.775 11.8829 181.775" stroke="#82AEC0" stroke-width="2.81039" stroke-miterlimit="10" stroke-linecap="round"/>
<path d="M37.1532 235.733C34.404 236.408 31.5282 236.071 29.5594 233.68C29.004 233.005 28.5751 232.204 28.4766 231.332C28.2798 229.651 29.3204 228.062 30.5579 226.895C34.0876 223.562 39.1008 221.945 41.379 217.347C41.9133 216.271 42.3352 215.111 43.1508 214.232C43.9665 213.353 45.3235 212.818 46.3852 213.381C46.9477 213.676 47.3344 214.232 47.6508 214.787C49.6477 218.345 49.5001 222.88 47.7423 226.565C45.8087 230.6 41.5688 234.65 37.1532 235.733Z" fill="#FFFF8D"/>
<path d="M39.5649 178.351C40.1837 178.632 39.9376 179.561 39.2626 179.511C36.9985 179.336 33.1454 179.118 28.0477 179.118C22.6758 179.118 17.9508 179.518 15.1946 179.814C14.5126 179.884 14.2524 178.949 14.8782 178.661C17.0016 177.662 20.8899 176.523 27.5555 176.523C34.0594 176.523 37.6454 177.486 39.5649 178.351Z" fill="#FFD600"/>
<path d="M35.7047 171.25C36.1758 171.081 36.661 170.849 36.9001 170.413C36.9844 170.251 37.0337 170.068 36.9985 169.886C36.9422 169.618 36.6962 169.429 36.4501 169.309C35.9579 169.07 35.4024 169.007 34.861 169C33.743 168.986 32.6321 169.196 31.5282 169.407C31.1977 169.471 30.8602 169.534 30.5649 169.696C30.2696 169.857 30.0165 170.132 29.9672 170.462C29.8969 170.905 30.2133 171.334 30.6001 171.545C31.936 172.283 34.3547 171.735 35.7047 171.25Z" fill="#94D1E0"/>
<path d="M34.6571 166.616C35.1282 166.447 35.6133 166.215 35.8524 165.779C35.9368 165.618 35.986 165.435 35.9508 165.252C35.8946 164.985 35.6485 164.795 35.4024 164.675C34.9102 164.436 34.3547 164.373 33.8133 164.366C32.6954 164.352 31.5844 164.563 30.4805 164.774C30.1501 164.837 29.8126 164.9 29.5172 165.062C29.2219 165.224 28.9688 165.498 28.9196 165.829C28.8493 166.272 29.1657 166.701 29.5524 166.911C30.8883 167.643 33.3141 167.094 34.6571 166.616Z" fill="#94D1E0"/>
<path d="M37.0618 183.786C36.4219 183.723 35.7469 183.779 35.2055 184.124C34.6641 184.468 34.3196 185.172 34.5376 185.776C34.6501 186.093 34.8962 186.346 35.1352 186.585C35.6626 187.105 36.1899 187.625 36.7102 188.146C37.2938 188.729 37.8774 189.306 38.5102 189.833C39.4876 190.649 40.8024 191.415 42.0891 190.818C43.186 190.311 43.4462 189.313 42.961 188.265C41.9274 186.064 39.5227 184.039 37.0618 183.786Z" fill="#FFFF8D"/>
<line x1="27" y1="156" x2="27" stroke="black" stroke-width="2"/>
<path d="M100.756 212.526C96.0047 212.526 92.1533 214.798 92.1533 217.6C92.1533 220.401 96.0047 222.673 100.756 222.673C105.507 222.673 109.358 220.401 109.358 217.6C109.358 214.798 105.507 212.526 100.756 212.526Z" fill="#424242"/>
<path d="M100.756 297.909C115.755 297.909 127.922 286.76 127.922 273.013C127.922 269.427 126.84 265.592 125.253 262.212C123.026 257.459 120.6 253.944 119.889 252.649C117.911 249.049 118.195 245.257 117.647 242.88C116.616 238.44 113.528 236.832 100.763 236.832C87.998 236.832 85.2515 238.362 84.1059 242.453C83.3232 245.235 84.0846 248.273 82.1137 251.867C81.4021 253.162 78.5062 257.452 76.272 262.212C74.6853 265.592 73.6038 269.427 73.6038 273.013C73.5896 286.76 85.7567 297.909 100.756 297.909Z" fill="#FFD600"/>
<path d="M100.756 236.298C92.134 236.298 85.1447 237.719 85.1447 239.472C85.1447 241.224 92.134 242.645 100.756 242.645C109.377 242.645 116.366 241.224 116.366 239.472C116.366 237.719 109.377 236.298 100.756 236.298Z" fill="#B26500"/>
<path d="M100.756 236.298C92.134 236.298 85.1447 237.719 85.1447 239.472C85.1447 241.224 92.134 242.645 100.756 242.645C109.377 242.645 116.366 241.224 116.366 239.472C116.366 237.719 109.377 236.298 100.756 236.298Z" fill="#B26500"/>
<path d="M100.756 238.006C94.4721 238.006 89.3783 238.662 89.3783 239.472C89.3783 240.281 94.4721 240.938 100.756 240.938C107.039 240.938 112.133 240.281 112.133 239.472C112.133 238.662 107.039 238.006 100.756 238.006Z" fill="#FFA000"/>
<path d="M108.369 260.362C108.81 259.252 109.956 256.968 109.358 255.943C107.97 253.56 104.662 252.706 104.662 250.515C104.662 247.17 107.095 236.334 107.095 236.334" stroke="#B26500" stroke-width="1.40625" stroke-miterlimit="10"/>
<path d="M93.619 260.76C93.619 260.76 92.0252 257.345 92.7011 255.815C93.2063 254.677 96.2445 252.841 96.6359 252.535C98.4503 251.112 96.0382 236.327 96.0382 236.327" stroke="#B26500" stroke-width="1.40625" stroke-miterlimit="10"/>
<path d="M108.369 260.362C105.921 265.201 104.662 276.243 107.771 275.681C113.015 274.735 106.555 256.591 103.374 258.676C100.194 260.761 96.2516 275.646 101.09 275.703C105.928 275.76 100.763 256.733 97.4755 258.847C94.8784 260.519 88.5387 275.681 93.7471 275.681C98.1799 275.681 93.6119 260.761 93.6119 260.761" stroke="#FCFBFB" stroke-width="1.40625" stroke-miterlimit="10"/>
<path d="M85.1803 238.81C85.1803 238.81 89.2787 236.832 100.756 236.832C112.233 236.832 116.331 238.81 116.331 238.81C116.331 238.81 116.587 235.153 115.74 233.495C114.723 231.503 113.94 230.813 113.94 230.813L113.513 228.785L113.684 228.251C113.905 227.554 113.748 226.785 113.257 226.237L112.887 225.825L112.474 223.875L112.617 223.484C112.887 222.737 112.702 221.904 112.147 221.335L111.877 221.057L111.542 219.464C111.542 219.464 109.849 215.849 100.756 215.849C91.6623 215.849 89.9689 219.464 89.9689 219.464L89.9404 219.599L89.7554 219.784C89.3854 220.147 89.2645 220.687 89.4423 221.171L89.5491 221.449L89.1079 223.555L88.3324 224.373C87.9481 224.779 87.8627 225.376 88.1118 225.875L88.4675 226.579L88.0193 228.692L87.7347 228.913C87.3149 229.375 87.3078 230.073 87.4928 230.549C87.6351 230.926 87.5212 231.353 87.2295 231.631C86.7812 232.058 86.2049 232.705 85.778 233.509C84.9028 235.139 85.1803 238.81 85.1803 238.81Z" fill="#82AEC0"/>
<path d="M113.94 230.813L113.556 228.771C109.415 228.792 103.886 228.586 93.2775 230.272C91.3635 230.706 89.0652 231.567 91.6054 231.211C91.6054 231.218 101.346 230.286 113.94 230.813Z" fill="#2F7889"/>
<path d="M112.517 223.861C107.935 223.939 98.5712 224.395 88.5102 226.579L88.062 228.692C98.5855 226.301 108.483 225.874 112.93 225.818L112.517 223.861Z" fill="#2F7889"/>
<path d="M89.1506 223.562C98.4645 221.541 107.181 221.022 111.898 220.908L111.592 219.457C111.592 219.457 111.443 214.953 100.805 214.953C90.1681 214.953 90.0187 219.457 90.0187 219.457C90.0187 219.457 94.5582 218.162 100.144 218.795C100.203 218.794 100.261 218.806 100.315 218.828C100.37 218.85 100.42 218.882 100.462 218.924C100.546 219.007 100.595 219.121 100.596 219.24C100.596 219.358 100.55 219.473 100.467 219.558C100.383 219.642 100.27 219.69 100.151 219.691C96.8137 220.133 92.8292 220.787 89.5918 221.456L89.1506 223.562Z" fill="#2F7889"/>
<path d="M116.281 238.81C116.281 238.81 111.685 236.832 100.798 236.832C89.9119 236.832 85.2301 238.81 85.2301 238.81" stroke="#82AEC0" stroke-width="2.81039" stroke-miterlimit="10" stroke-linecap="round"/>
<path d="M110.802 293.413C108.02 294.096 105.11 293.754 103.118 291.335C102.556 290.652 102.122 289.841 102.022 288.958C101.823 287.258 102.876 285.65 104.128 284.469C107.7 281.096 112.773 279.46 115.079 274.806C115.619 273.718 116.046 272.544 116.872 271.654C117.697 270.765 119.07 270.224 120.145 270.793C120.714 271.092 121.105 271.654 121.425 272.216C123.446 275.817 123.297 280.406 121.518 284.134C119.561 288.218 115.271 292.317 110.802 293.413Z" fill="#FFFF8D"/>
<path d="M113.243 235.345C113.869 235.63 113.62 236.569 112.937 236.519C110.646 236.341 106.747 236.121 101.588 236.121C96.152 236.121 91.3706 236.526 88.5814 236.825C87.8912 236.896 87.628 235.95 88.2612 235.658C90.41 234.648 94.3448 233.495 101.09 233.495C107.672 233.495 111.3 234.47 113.243 235.345Z" fill="#FFD600"/>
<path d="M109.337 228.159C109.813 227.988 110.304 227.753 110.546 227.312C110.632 227.148 110.681 226.963 110.646 226.778C110.589 226.508 110.34 226.316 110.091 226.195C109.593 225.953 109.031 225.889 108.483 225.882C107.351 225.867 106.227 226.081 105.11 226.294C104.776 226.358 104.434 226.422 104.135 226.586C103.837 226.75 103.58 227.027 103.531 227.362C103.459 227.81 103.78 228.244 104.171 228.457C105.523 229.204 107.97 228.649 109.337 228.159Z" fill="#94D1E0"/>
<path d="M108.276 223.47C108.753 223.299 109.244 223.064 109.486 222.623C109.571 222.459 109.621 222.274 109.586 222.089C109.529 221.819 109.28 221.627 109.031 221.506C108.533 221.264 107.97 221.2 107.423 221.193C106.291 221.179 105.167 221.392 104.05 221.605C103.716 221.67 103.374 221.734 103.075 221.897C102.776 222.061 102.52 222.338 102.47 222.673C102.399 223.121 102.719 223.555 103.111 223.769C104.463 224.509 106.917 223.954 108.276 223.47Z" fill="#94D1E0"/>
<path d="M110.71 240.845C110.062 240.781 109.379 240.838 108.831 241.187C108.284 241.535 107.935 242.247 108.155 242.859C108.269 243.179 108.518 243.435 108.76 243.677C109.294 244.203 109.828 244.73 110.354 245.257C110.945 245.847 111.535 246.431 112.176 246.964C113.165 247.79 114.495 248.565 115.797 247.96C116.907 247.448 117.171 246.438 116.68 245.377C115.634 243.15 113.2 241.101 110.71 240.845Z" fill="#FFFF8D"/>
<line x1="100" y1="213" x2="100" stroke="black" stroke-width="2"/>
<path d="M174.283 262.684C169.588 262.684 165.782 264.929 165.782 267.697C165.782 270.466 169.588 272.711 174.283 272.711C178.978 272.711 182.784 270.466 182.784 267.697C182.784 264.929 178.978 262.684 174.283 262.684Z" fill="#424242"/>
<path d="M174.283 347.059C189.105 347.059 201.128 336.041 201.128 322.457C201.128 318.913 200.06 315.123 198.492 311.783C196.291 307.086 193.893 303.613 193.19 302.333C191.235 298.775 191.517 295.028 190.975 292.679C189.956 288.292 186.904 286.703 174.29 286.703C161.676 286.703 158.962 288.214 157.83 292.257C157.056 295.007 157.809 298.009 155.861 301.56C155.158 302.839 152.296 307.079 150.088 311.783C148.52 315.123 147.452 318.913 147.452 322.457C147.438 336.041 159.461 347.059 174.283 347.059Z" fill="#FFD600"/>
<path d="M174.283 286.175C165.763 286.175 158.856 287.579 158.856 289.311C158.856 291.043 165.763 292.447 174.283 292.447C182.803 292.447 189.71 291.043 189.71 289.311C189.71 287.579 182.803 286.175 174.283 286.175Z" fill="#B26500"/>
<path d="M174.283 286.175C165.763 286.175 158.856 287.579 158.856 289.311C158.856 291.043 165.763 292.447 174.283 292.447C182.803 292.447 189.71 291.043 189.71 289.311C189.71 287.579 182.803 286.175 174.283 286.175Z" fill="#B26500"/>
<path d="M174.283 287.863C168.074 287.863 163.04 288.511 163.04 289.311C163.04 290.111 168.074 290.76 174.283 290.76C180.492 290.76 185.526 290.111 185.526 289.311C185.526 288.511 180.492 287.863 174.283 287.863Z" fill="#FFA000"/>
<path d="M181.806 309.955C182.242 308.858 183.374 306.601 182.784 305.589C181.413 303.233 178.143 302.389 178.143 300.224C178.143 296.919 180.548 286.21 180.548 286.21" stroke="#B26500" stroke-width="1.40625" stroke-miterlimit="10"/>
<path d="M167.231 310.349C167.231 310.349 165.656 306.974 166.324 305.462C166.823 304.337 169.825 302.523 170.212 302.221C172.005 300.814 169.621 286.203 169.621 286.203" stroke="#B26500" stroke-width="1.40625" stroke-miterlimit="10"/>
<path d="M181.806 309.955C179.388 314.736 178.143 325.649 181.216 325.093C186.398 324.158 180.013 306.228 176.87 308.289C173.728 310.349 169.832 325.058 174.613 325.114C179.395 325.171 174.29 306.369 171.042 308.457C168.475 310.11 162.21 325.093 167.357 325.093C171.738 325.093 167.224 310.349 167.224 310.349" stroke="#FCFBFB" stroke-width="1.40625" stroke-miterlimit="10"/>
<path d="M158.892 288.657C158.892 288.657 162.942 286.703 174.283 286.703C185.624 286.703 189.674 288.657 189.674 288.657C189.674 288.657 189.928 285.043 189.091 283.405C188.085 281.436 187.312 280.754 187.312 280.754L186.89 278.75L187.059 278.223C187.277 277.534 187.122 276.775 186.637 276.233L186.271 275.825L185.863 273.899L186.004 273.512C186.271 272.774 186.088 271.951 185.54 271.389L185.273 271.114L184.942 269.539C184.942 269.539 183.269 265.968 174.283 265.968C165.297 265.968 163.624 269.539 163.624 269.539L163.595 269.673L163.413 269.856C163.047 270.214 162.928 270.749 163.103 271.227L163.209 271.501L162.773 273.582L162.006 274.391C161.627 274.792 161.542 275.382 161.788 275.875L162.14 276.571L161.697 278.659L161.416 278.877C161.001 279.334 160.994 280.023 161.177 280.494C161.317 280.867 161.205 281.289 160.917 281.563C160.474 281.985 159.904 282.625 159.482 283.419C158.617 285.029 158.892 288.657 158.892 288.657Z" fill="#82AEC0"/>
<path d="M187.312 280.754L186.932 278.736C182.84 278.757 177.377 278.554 166.893 280.22C165.002 280.649 162.731 281.5 165.241 281.148C165.241 281.155 174.867 280.234 187.312 280.754Z" fill="#2F7889"/>
<path d="M185.906 273.885C181.378 273.962 172.124 274.412 162.182 276.571L161.739 278.659C172.138 276.296 181.919 275.875 186.313 275.818L185.906 273.885Z" fill="#2F7889"/>
<path d="M162.815 273.589C172.019 271.593 180.632 271.079 185.294 270.967L184.992 269.532C184.992 269.532 184.844 265.082 174.332 265.082C163.82 265.082 163.673 269.532 163.673 269.532C163.673 269.532 168.159 268.253 173.678 268.879C173.736 268.878 173.794 268.889 173.848 268.911C173.902 268.933 173.951 268.965 173.993 269.006C174.076 269.088 174.124 269.201 174.125 269.318C174.126 269.435 174.08 269.549 173.998 269.632C173.915 269.716 173.803 269.764 173.685 269.764C170.388 270.2 166.45 270.847 163.251 271.508L162.815 273.589Z" fill="#2F7889"/>
<path d="M189.625 288.657C189.625 288.657 185.083 286.703 174.325 286.703C163.567 286.703 158.941 288.657 158.941 288.657" stroke="#82AEC0" stroke-width="2.81039" stroke-miterlimit="10" stroke-linecap="round"/>
<path d="M184.211 342.615C181.462 343.29 178.586 342.953 176.617 340.562C176.062 339.887 175.633 339.086 175.535 338.214C175.338 336.533 176.378 334.944 177.616 333.777C181.145 330.444 186.159 328.827 188.437 324.228C188.971 323.153 189.393 321.993 190.209 321.114C191.024 320.235 192.381 319.7 193.443 320.263C194.006 320.558 194.392 321.114 194.709 321.669C196.706 325.227 196.558 329.762 194.8 333.446C192.867 337.482 188.627 341.532 184.211 342.615Z" fill="#FFFF8D"/>
<path d="M186.623 285.233C187.242 285.514 186.995 286.443 186.32 286.393C184.056 286.218 180.203 286 175.106 286C169.734 286 165.009 286.4 162.253 286.696C161.57 286.766 161.31 285.831 161.936 285.543C164.06 284.544 167.948 283.405 174.613 283.405C181.117 283.405 184.703 284.368 186.623 285.233Z" fill="#FFD600"/>
<path d="M182.763 278.132C183.234 277.963 183.719 277.731 183.958 277.295C184.042 277.133 184.092 276.95 184.056 276.768C184 276.5 183.754 276.31 183.508 276.191C183.016 275.952 182.46 275.889 181.919 275.882C180.801 275.868 179.69 276.078 178.586 276.289C178.256 276.353 177.918 276.416 177.623 276.578C177.328 276.739 177.074 277.014 177.025 277.344C176.955 277.787 177.271 278.216 177.658 278.427C178.994 279.165 181.413 278.617 182.763 278.132Z" fill="#94D1E0"/>
<path d="M181.715 273.498C182.186 273.329 182.671 273.097 182.91 272.661C182.995 272.5 183.044 272.317 183.009 272.134C182.953 271.867 182.706 271.677 182.46 271.557C181.968 271.318 181.413 271.255 180.871 271.248C179.753 271.234 178.642 271.445 177.538 271.656C177.208 271.719 176.87 271.782 176.575 271.944C176.28 272.106 176.027 272.38 175.978 272.71C175.907 273.153 176.224 273.582 176.61 273.793C177.946 274.525 180.372 273.976 181.715 273.498Z" fill="#94D1E0"/>
<path d="M184.12 290.668C183.48 290.605 182.805 290.661 182.263 291.006C181.722 291.35 181.378 292.053 181.595 292.658C181.708 292.975 181.954 293.228 182.193 293.467C182.72 293.987 183.248 294.507 183.768 295.028C184.352 295.611 184.935 296.188 185.568 296.715C186.545 297.531 187.86 298.297 189.147 297.7C190.244 297.193 190.504 296.195 190.019 295.147C188.985 292.946 186.581 290.921 184.12 290.668Z" fill="#FFFF8D"/>
<line x1="173.162" y1="263.001" x2="173.162" y2="0.000976562" stroke="black" stroke-width="2"/>
</svg>
